<svg width="47" height="50" viewBox="0 0 47 50" fill="none" xmlns="http://www.w3.org/2000/svg">
<rect width="47" height="50" fill="#E5E5E5"/>
<g clip-path="url(#clip0_0_1)">
<rect width="1600" height="6102" transform="translate(-240 -50)" fill="#FEF8F5"/>
<path d="M1045 -50H-240V750H945C1000.23 750 1045 705.228 1045 650V-50Z" fill="url(#paint0_linear_0_1)"/>
<mask id="mask0_0_1" style="mask-type:alpha" maskUnits="userSpaceOnUse" x="-240" y="-50" width="1285" height="800">
<path d="M1045 -50H-240V750H945C1000.23 750 1045 705.228 1045 650V-50Z" fill="url(#paint1_linear_0_1)"/>
</mask>
<g mask="url(#mask0_0_1)">
<path opacity="0.2" d="M229.507 364.869C343.589 250.787 343.629 65.7842 229.598 -48.3471C115.566 -162.478 -69.3559 -162.519 -183.437 -48.4372C-297.519 65.6442 -297.559 250.647 -183.528 364.778C-69.4961 478.91 115.426 478.95 229.507 364.869Z" fill="url(#paint2_linear_0_1)"/>
<path d="M1045 -50H-240V750H945C1000.23 750 1045 705.228 1045 650V-50Z" fill="url(#paint3_linear_0_1)"/>
</g>
<path opacity="0.4" d="M-1.90735e-06 17L16 17L16 1.90735e-06L-1.90735e-06 17Z" fill="white"/>
<path d="M47 17H16V50L47 17Z" fill="white"/>
</g>
<defs>
<linearGradient id="paint0_linear_0_1" x1="652.272" y1="1069.08" x2="-333.489" y2="256.262" gradientUnits="userSpaceOnUse">
<stop stop-color="#FFEDBA"/>
<stop offset="1" stop-color="#EE4D47"/>
</linearGradient>
<linearGradient id="paint1_linear_0_1" x1="553" y1="940" x2="-303.525" y2="208.836" gradientUnits="userSpaceOnUse">
<stop stop-color="#FFEDBA"/>
<stop offset="1" stop-color="#EE4D47"/>
</linearGradient>
<linearGradient id="paint2_linear_0_1" x1="-183.416" y1="-146.468" x2="-183.338" y2="209.265" gradientUnits="userSpaceOnUse">
<stop stop-color="white"/>
<stop offset="1" stop-color="white" stop-opacity="0"/>
</linearGradient>
<linearGradient id="paint3_linear_0_1" x1="652.272" y1="414" x2="652.272" y2="-278" gradientUnits="userSpaceOnUse">
<stop stop-color="#FFEDBA" stop-opacity="0"/>
<stop offset="1" stop-color="#EB2A24"/>
</linearGradient>
<clipPath id="clip0_0_1">
<rect width="1600" height="6102" fill="white" transform="translate(-240 -50)"/>
</clipPath>
</defs>
</svg>
