<svg width="170" height="36" viewBox="0 0 170 36" fill="none" xmlns="http://www.w3.org/2000/svg">
<circle cx="85" cy="18" r="18" fill="#ED4D47"/>
<path fill-rule="evenodd" clip-rule="evenodd" d="M84.9095 14.6592L84.8699 14.0076C84.7511 12.3187 85.7938 10.7761 87.4438 10.1777C88.051 9.96492 89.0805 9.93832 89.7537 10.1245C90.0176 10.2043 90.5193 10.4702 90.8756 10.7096L91.5224 11.1485L92.2351 10.9224C92.6311 10.8027 93.1591 10.6032 93.3966 10.4702C93.621 10.3506 93.819 10.284 93.819 10.324C93.819 10.55 93.3307 11.3213 92.9215 11.7468C92.3671 12.3453 92.5255 12.3985 93.6475 11.9995C94.3206 11.7734 94.3338 11.7734 94.2018 12.0261C94.1226 12.1591 93.7134 12.6245 93.2778 13.0501C92.5387 13.7815 92.4991 13.8613 92.4991 14.473C92.4991 15.4172 92.0503 17.3853 91.6015 18.4624C90.77 20.4838 88.9881 22.5715 87.2062 23.6221C84.6984 25.0982 81.3589 25.4705 78.5475 24.6062C77.6103 24.3136 76 23.5689 76 23.436C76 23.396 76.4883 23.3428 77.0824 23.3296C78.3231 23.303 79.5638 22.9572 80.6197 22.3455L81.3326 21.92L80.5141 21.6407C79.3526 21.2417 78.3099 20.3242 78.0459 19.4598C77.9667 19.1805 77.9931 19.1672 78.7322 19.1672L79.4978 19.1539L78.851 18.8481C78.0855 18.4624 77.3859 17.8108 77.0427 17.1459C76.7919 16.6672 76.4752 15.457 76.5676 15.364C76.5939 15.3241 76.8712 15.4038 77.188 15.5102C78.0987 15.8427 78.2175 15.7629 77.6895 15.2044C76.6995 14.1937 76.396 12.691 76.8712 11.2681L77.0956 10.6298L77.9667 11.4942C79.7486 13.2362 81.8473 14.2735 84.2496 14.5794L84.9095 14.6592Z" fill="white"/>
<circle cx="152" cy="18" r="18" fill="#ED4D47"/>
<path d="M152.002 13.8978C149.732 13.8978 147.901 15.7293 147.901 18C147.901 20.2707 149.732 22.1022 152.002 22.1022C154.272 22.1022 156.103 20.2707 156.103 18C156.103 15.7293 154.272 13.8978 152.002 13.8978ZM152.002 20.667C150.535 20.667 149.335 19.4709 149.335 18C149.335 16.5291 150.531 15.333 152.002 15.333C153.472 15.333 154.668 16.5291 154.668 18C154.668 19.4709 153.469 20.667 152.002 20.667ZM157.227 13.73C157.227 14.262 156.799 14.6868 156.271 14.6868C155.739 14.6868 155.314 14.2584 155.314 13.73C155.314 13.2016 155.743 12.7732 156.271 12.7732C156.799 12.7732 157.227 13.2016 157.227 13.73ZM159.944 14.7011C159.883 13.4194 159.59 12.2841 158.652 11.3487C157.716 10.4133 156.581 10.1205 155.3 10.0562C153.979 9.98126 150.021 9.98126 148.7 10.0562C147.422 10.1169 146.287 10.4097 145.348 11.3451C144.41 12.2805 144.12 13.4158 144.056 14.6975C143.981 16.0185 143.981 19.9779 144.056 21.2989C144.117 22.5806 144.41 23.7159 145.348 24.6513C146.287 25.5867 147.419 25.8795 148.7 25.9438C150.021 26.0187 153.979 26.0187 155.3 25.9438C156.581 25.8831 157.716 25.5903 158.652 24.6513C159.587 23.7159 159.88 22.5806 159.944 21.2989C160.019 19.9779 160.019 16.0221 159.944 14.7011ZM158.238 22.7163C157.959 23.416 157.42 23.9551 156.717 24.2372C155.664 24.6549 153.165 24.5585 152.002 24.5585C150.838 24.5585 148.336 24.6513 147.287 24.2372C146.587 23.9587 146.048 23.4196 145.766 22.7163C145.348 21.6631 145.445 19.1639 145.445 18C145.445 16.8361 145.352 14.3334 145.766 13.2837C146.044 12.584 146.583 12.0449 147.287 11.7628C148.34 11.3451 150.838 11.4415 152.002 11.4415C153.165 11.4415 155.668 11.3487 156.717 11.7628C157.417 12.0413 157.956 12.5804 158.238 13.2837C158.655 14.3369 158.559 16.8361 158.559 18C158.559 19.1639 158.655 21.6666 158.238 22.7163Z" fill="white"/>
<circle cx="18" cy="18" r="18" fill="#ED4D47"/>
<path d="M19.37 28.4882V18.2429H22.2041L22.5796 14.7123H19.37L19.3749 12.9452C19.3749 12.0244 19.4625 11.531 20.7879 11.531H22.5596V8H19.7251C16.3205 8 15.1222 9.71271 15.1222 12.593V14.7127H13V18.2433H15.1222V28.4882H19.37Z" fill="white"/>
</svg>
